<svg width="43" height="43" viewBox="0 0 43 43" fill="none" xmlns="http://www.w3.org/2000/svg">
<path d="M17.4426 0.606733H25.8361C28.7762 0.606733 30.9734 0.606835 32.7164 0.74924C34.4578 0.89152 35.7342 1.1752 36.8348 1.73598C38.7843 2.72929 40.3693 4.31427 41.3626 6.26375C41.9234 7.36434 42.207 8.64073 42.3493 10.3822C42.4917 12.1251 42.4918 14.3223 42.4918 17.2625V25.6559C42.4918 28.5961 42.4917 30.7933 42.3493 32.5362C42.207 34.2776 41.9234 35.554 41.3626 36.6546C40.3693 38.6041 38.7843 40.1891 36.8348 41.1824C35.7342 41.7432 34.4578 42.0269 32.7164 42.1691C30.9735 42.3116 28.7762 42.3116 25.8361 42.3116H17.4427C14.5025 42.3116 12.3053 42.3116 10.5623 42.1691C8.82091 42.0269 7.54452 41.7432 6.44393 41.1824C4.49444 40.1891 2.90946 38.6041 1.91615 36.6546C1.35537 35.554 1.0717 34.2776 0.929416 32.5362C0.787011 30.7933 0.786909 28.5961 0.786909 25.6559V17.2625C0.786909 14.3223 0.787011 12.1251 0.929416 10.3822C1.0717 8.64074 1.35537 7.36434 1.91615 6.26375C2.90946 4.31427 4.49444 2.72929 6.44393 1.73598C7.54452 1.1752 8.82091 0.89152 10.5623 0.74924C12.3053 0.606835 14.5025 0.606733 17.4426 0.606733Z" fill="white"/>
<path d="M17.4426 0.606733H25.8361C28.7762 0.606733 30.9734 0.606835 32.7164 0.74924C34.4578 0.89152 35.7342 1.1752 36.8348 1.73598C38.7843 2.72929 40.3693 4.31427 41.3626 6.26375C41.9234 7.36434 42.207 8.64073 42.3493 10.3822C42.4917 12.1251 42.4918 14.3223 42.4918 17.2625V25.6559C42.4918 28.5961 42.4917 30.7933 42.3493 32.5362C42.207 34.2776 41.9234 35.554 41.3626 36.6546C40.3693 38.6041 38.7843 40.1891 36.8348 41.1824C35.7342 41.7432 34.4578 42.0269 32.7164 42.1691C30.9735 42.3116 28.7762 42.3116 25.8361 42.3116H17.4427C14.5025 42.3116 12.3053 42.3116 10.5623 42.1691C8.82091 42.0269 7.54452 41.7432 6.44393 41.1824C4.49444 40.1891 2.90946 38.6041 1.91615 36.6546C1.35537 35.554 1.0717 34.2776 0.929416 32.5362C0.787011 30.7933 0.786909 28.5961 0.786909 25.6559V17.2625C0.786909 14.3223 0.787011 12.1251 0.929416 10.3822C1.0717 8.64074 1.35537 7.36434 1.91615 6.26375C2.90946 4.31427 4.49444 2.72929 6.44393 1.73598C7.54452 1.1752 8.82091 0.89152 10.5623 0.74924C12.3053 0.606835 14.5025 0.606733 17.4426 0.606733Z" fill="url(#paint0_linear_121_1832)"/>
<path d="M17.4426 0.606733H25.8361C28.7762 0.606733 30.9734 0.606835 32.7164 0.74924C34.4578 0.89152 35.7342 1.1752 36.8348 1.73598C38.7843 2.72929 40.3693 4.31427 41.3626 6.26375C41.9234 7.36434 42.207 8.64073 42.3493 10.3822C42.4917 12.1251 42.4918 14.3223 42.4918 17.2625V25.6559C42.4918 28.5961 42.4917 30.7933 42.3493 32.5362C42.207 34.2776 41.9234 35.554 41.3626 36.6546C40.3693 38.6041 38.7843 40.1891 36.8348 41.1824C35.7342 41.7432 34.4578 42.0269 32.7164 42.1691C30.9735 42.3116 28.7762 42.3116 25.8361 42.3116H17.4427C14.5025 42.3116 12.3053 42.3116 10.5623 42.1691C8.82091 42.0269 7.54452 41.7432 6.44393 41.1824C4.49444 40.1891 2.90946 38.6041 1.91615 36.6546C1.35537 35.554 1.0717 34.2776 0.929416 32.5362C0.787011 30.7933 0.786909 28.5961 0.786909 25.6559V17.2625C0.786909 14.3223 0.787011 12.1251 0.929416 10.3822C1.0717 8.64074 1.35537 7.36434 1.91615 6.26375C2.90946 4.31427 4.49444 2.72929 6.44393 1.73598C7.54452 1.1752 8.82091 0.89152 10.5623 0.74924C12.3053 0.606835 14.5025 0.606733 17.4426 0.606733Z" stroke="#D0D5DD" stroke-width="0.262295"/>
<path d="M34.1562 13.5099V14.1584C34.1562 16.0543 32.6237 17.593 30.7361 17.593H19.344C13.5343 17.4463 12.9209 22.2254 12.9209 22.2254L9.88704 14.5157C9.70943 14.0944 9.62888 13.6256 9.66192 13.1712C9.83954 11.4715 11.2749 10.0774 13.0676 10.0774H30.7361C32.6237 10.0774 34.1562 11.616 34.1562 13.512V13.5099Z" fill="#4C2BA1"/>
<path d="M9.66187 29.2536V28.6051C9.66187 26.7112 11.1943 25.1705 13.082 25.1705H24.4741C30.2837 25.3172 30.8971 20.5381 30.8971 20.5381L33.9475 28.2313C34.1086 28.6526 34.2057 29.1069 34.1582 29.5592C33.9971 31.2755 32.5617 32.653 30.7525 32.653H13.084C11.1964 32.653 9.66393 31.1144 9.66393 29.2185V29.2515L9.66187 29.2536Z" fill="#4C2BA1"/>
<defs>
<linearGradient id="paint0_linear_121_1832" x1="21.6394" y1="0.475586" x2="21.6394" y2="42.4428" gradientUnits="userSpaceOnUse">
<stop stop-color="white"/>
<stop offset="1" stop-color="#D0D5DD"/>
</linearGradient>
</defs>
</svg>
