<svg width="154" height="51" viewBox="0 0 154 51" fill="none" xmlns="http://www.w3.org/2000/svg">
<g filter="url(#filter0_dd_85_2185)">
<path d="M20.7869 3.13115H29.1803C32.1205 3.13115 34.3177 3.13125 36.0606 3.27365C37.8021 3.41593 39.0785 3.69961 40.1791 4.26039C42.1285 5.2537 43.7135 6.83868 44.7068 8.78816C45.2676 9.88875 45.5513 11.1651 45.6936 12.9066C45.836 14.6495 45.8361 16.8467 45.8361 19.7869V28.1803C45.8361 31.1205 45.836 33.3177 45.6936 35.0606C45.5513 36.8021 45.2676 38.0785 44.7068 39.1791C43.7135 41.1285 42.1285 42.7135 40.1791 43.7068C39.0785 44.2676 37.8021 44.5513 36.0606 44.6936C34.3177 44.836 32.1205 44.8361 29.1803 44.8361H20.7869C17.8467 44.8361 15.6495 44.836 13.9066 44.6936C12.1651 44.5513 10.8888 44.2676 9.78816 43.7068C7.83868 42.7135 6.2537 41.1285 5.26039 39.1791C4.69961 38.0785 4.41593 36.8021 4.27365 35.0606C4.13125 33.3177 4.13115 31.1205 4.13115 28.1803V19.7869C4.13115 16.8467 4.13125 14.6495 4.27365 12.9066C4.41593 11.1651 4.69961 9.88875 5.26039 8.78816C6.2537 6.83868 7.83868 5.2537 9.78816 4.26039C10.8888 3.69961 12.1651 3.41593 13.9066 3.27365C15.6495 3.13125 17.8467 3.13115 20.7869 3.13115Z" fill="white"/>
<path d="M20.7869 3.13115H29.1803C32.1205 3.13115 34.3177 3.13125 36.0606 3.27365C37.8021 3.41593 39.0785 3.69961 40.1791 4.26039C42.1285 5.2537 43.7135 6.83868 44.7068 8.78816C45.2676 9.88875 45.5513 11.1651 45.6936 12.9066C45.836 14.6495 45.8361 16.8467 45.8361 19.7869V28.1803C45.8361 31.1205 45.836 33.3177 45.6936 35.0606C45.5513 36.8021 45.2676 38.0785 44.7068 39.1791C43.7135 41.1285 42.1285 42.7135 40.1791 43.7068C39.0785 44.2676 37.8021 44.5513 36.0606 44.6936C34.3177 44.836 32.1205 44.8361 29.1803 44.8361H20.7869C17.8467 44.8361 15.6495 44.836 13.9066 44.6936C12.1651 44.5513 10.8888 44.2676 9.78816 43.7068C7.83868 42.7135 6.2537 41.1285 5.26039 39.1791C4.69961 38.0785 4.41593 36.8021 4.27365 35.0606C4.13125 33.3177 4.13115 31.1205 4.13115 28.1803V19.7869C4.13115 16.8467 4.13125 14.6495 4.27365 12.9066C4.41593 11.1651 4.69961 9.88875 5.26039 8.78816C6.2537 6.83868 7.83868 5.2537 9.78816 4.26039C10.8888 3.69961 12.1651 3.41593 13.9066 3.27365C15.6495 3.13125 17.8467 3.13115 20.7869 3.13115Z" fill="url(#paint0_linear_85_2185)"/>
<path d="M20.7869 3.13115H29.1803C32.1205 3.13115 34.3177 3.13125 36.0606 3.27365C37.8021 3.41593 39.0785 3.69961 40.1791 4.26039C42.1285 5.2537 43.7135 6.83868 44.7068 8.78816C45.2676 9.88875 45.5513 11.1651 45.6936 12.9066C45.836 14.6495 45.8361 16.8467 45.8361 19.7869V28.1803C45.8361 31.1205 45.836 33.3177 45.6936 35.0606C45.5513 36.8021 45.2676 38.0785 44.7068 39.1791C43.7135 41.1285 42.1285 42.7135 40.1791 43.7068C39.0785 44.2676 37.8021 44.5513 36.0606 44.6936C34.3177 44.836 32.1205 44.8361 29.1803 44.8361H20.7869C17.8467 44.8361 15.6495 44.836 13.9066 44.6936C12.1651 44.5513 10.8888 44.2676 9.78816 43.7068C7.83868 42.7135 6.2537 41.1285 5.26039 39.1791C4.69961 38.0785 4.41593 36.8021 4.27365 35.0606C4.13125 33.3177 4.13115 31.1205 4.13115 28.1803V19.7869C4.13115 16.8467 4.13125 14.6495 4.27365 12.9066C4.41593 11.1651 4.69961 9.88875 5.26039 8.78816C6.2537 6.83868 7.83868 5.2537 9.78816 4.26039C10.8888 3.69961 12.1651 3.41593 13.9066 3.27365C15.6495 3.13125 17.8467 3.13115 20.7869 3.13115Z" stroke="#D0D5DD" stroke-width="0.262295"/>
<path d="M37.5004 16.034V16.6825C37.5004 18.5784 35.968 20.1171 34.0803 20.1171H22.6882C16.8786 19.9704 16.2652 24.7495 16.2652 24.7495L13.2313 17.0398C13.0537 16.6185 12.9731 16.1497 13.0062 15.6953C13.1838 13.9956 14.6191 12.6015 16.4118 12.6015H34.0803C35.968 12.6015 37.5004 14.1401 37.5004 16.0361V16.034Z" fill="#4C2BA1"/>
<path d="M13.0061 31.7777V31.1292C13.0061 29.2353 14.5385 27.6946 16.4262 27.6946H27.8183C33.628 27.8413 34.2414 23.0622 34.2414 23.0622L37.2918 30.7554C37.4529 31.1767 37.5499 31.6311 37.5024 32.0834C37.3413 33.7996 35.906 35.1772 34.0968 35.1772H16.4283C14.5406 35.1772 13.0082 33.6385 13.0082 31.7426V31.7756L13.0061 31.7777Z" fill="#4C2BA1"/>
</g>
<path d="M59.0819 27.521H63.9327C63.9327 28.7931 65.1912 29.6283 66.9326 29.6283C68.525 29.6283 69.6363 28.9023 69.6363 27.9209C69.6363 24.9045 59.3798 26.6488 59.3798 19.9991C59.3798 16.2567 62.5646 14.1124 66.7117 14.1124C71.1174 14.1124 74.1549 16.5105 74.1549 19.8177H69.3417C69.3417 18.727 68.2682 17.9641 66.6758 17.9641C65.1947 17.9641 64.1947 18.6178 64.1947 19.5622C64.1947 22.5064 74.4888 20.7974 74.4888 27.4487C74.4888 31.0819 71.453 33.5169 66.936 33.5169C62.4191 33.5169 59.0819 31.0096 59.0819 27.521Z" fill="white"/>
<path d="M74.8929 23.8138C74.8929 18.2901 79.2626 14.1107 85.038 14.1107C90.8134 14.1107 95.1831 18.2901 95.1831 23.8138C95.1831 29.3376 90.8134 33.5169 85.038 33.5169C79.2626 33.5169 74.8929 29.3376 74.8929 23.8138ZM90.221 23.8138C90.221 20.9066 88.0362 18.69 85.0363 18.69C82.0364 18.69 79.8533 20.9066 79.8533 23.8138C79.8533 26.7211 82.0741 28.9376 85.0363 28.9376C87.9985 28.9376 90.221 26.7211 90.221 23.8138Z" fill="white"/>
<path d="M96.7738 14.5477H101.587V17.3457C103.068 15.4198 105.104 14.2569 107.585 14.2569H108.289V19.127H107.585C103.734 19.127 101.587 21.1251 101.587 24.2508V33.0817H96.7738V14.5477Z" fill="white"/>
<path d="M109.253 9.55664H114.066V16.7289C115.585 15.0938 117.694 14.1124 120.213 14.1124C125.471 14.1124 129.396 18.2918 129.396 23.8155C129.396 29.3392 125.471 33.5186 120.213 33.5186C117.696 33.5186 115.585 32.5372 114.066 30.9021V33.0817H109.253V9.55664ZM124.434 23.8138C124.434 20.9066 122.249 18.69 119.251 18.69C116.252 18.69 114.068 20.9066 114.068 23.8138C114.068 26.7211 116.288 28.9376 119.251 28.9376C122.213 28.9376 124.434 26.7211 124.434 23.8138Z" fill="white"/>
<path d="M131.171 14.5477H135.984V33.0817H131.171V14.5477Z" fill="white"/>
<path d="M140.577 27.4487V18.8732H137.577V14.5493H139.281C140.281 14.5493 140.835 14.0402 140.835 13.0588V9.60537H145.39V14.5477H151.537V18.8715H145.39V26.9748C145.39 28.0654 146.131 28.7561 147.241 28.7561C148.35 28.7561 149.129 27.9562 149.129 26.6488H153.424C153.424 30.5727 150.869 33.0817 146.907 33.0817C142.945 33.0817 140.575 30.8282 140.575 27.4487H140.577Z" fill="white"/>
<defs>
<filter id="filter0_dd_85_2185" x="0.0655737" y="0.377049" width="49.836" height="49.8361" filterUnits="userSpaceOnUse" color-interpolation-filters="sRGB">
<feFlood flood-opacity="0" result="BackgroundImageFix"/>
<feColorMatrix in="SourceAlpha" type="matrix" values="0 0 0 0 0 0 0 0 0 0 0 0 0 0 0 0 0 0 127 0" result="hardAlpha"/>
<feOffset dy="1.31148"/>
<feGaussianBlur stdDeviation="1.31148"/>
<feColorMatrix type="matrix" values="0 0 0 0 0.0627451 0 0 0 0 0.0941176 0 0 0 0 0.156863 0 0 0 0.06 0"/>
<feBlend mode="normal" in2="BackgroundImageFix" result="effect1_dropShadow_85_2185"/>
<feColorMatrix in="SourceAlpha" type="matrix" values="0 0 0 0 0 0 0 0 0 0 0 0 0 0 0 0 0 0 127 0" result="hardAlpha"/>
<feOffset dy="1.31148"/>
<feGaussianBlur stdDeviation="1.96721"/>
<feColorMatrix type="matrix" values="0 0 0 0 0.0627451 0 0 0 0 0.0941176 0 0 0 0 0.156863 0 0 0 0.1 0"/>
<feBlend mode="normal" in2="effect1_dropShadow_85_2185" result="effect2_dropShadow_85_2185"/>
<feBlend mode="normal" in="SourceGraphic" in2="effect2_dropShadow_85_2185" result="shape"/>
</filter>
<linearGradient id="paint0_linear_85_2185" x1="24.9836" y1="3" x2="24.9836" y2="44.9672" gradientUnits="userSpaceOnUse">
<stop stop-color="white"/>
<stop offset="1" stop-color="#D0D5DD"/>
</linearGradient>
</defs>
</svg>
